<svg id="visual" viewBox="0 0 900 600" width="900" height="600" xmlns="http://www.w3.org/2000/svg" xmlns:xlink="http://www.w3.org/1999/xlink" version="1.1"><path d="M737 600L683 545L620 491L548 436L620 382L647 327L773 273L557 218L539 164L755 109L620 55L557 0L900 0L900 55L900 109L900 164L900 218L900 273L900 327L900 382L900 436L900 491L900 545L900 600Z" fill="#0b0c11"></path><path d="M440 600L341 545L332 491L350 436L386 382L422 327L485 273L395 218L350 164L395 109L395 55L305 0L558 0L621 55L756 109L540 164L558 218L774 273L648 327L621 382L549 436L621 491L684 545L738 600Z" fill="#08090f"></path><path d="M251 600L251 545L269 491L188 436L323 382L314 327L341 273L260 218L179 164L233 109L251 55L197 0L306 0L396 55L396 109L351 164L396 218L486 273L423 327L387 382L351 436L333 491L342 545L441 600Z" fill="#05060c"></path><path d="M188 600L134 545L170 491L116 436L197 382L251 327L224 273L179 218L71 164L98 109L197 55L98 0L198 0L252 55L234 109L180 164L261 218L342 273L315 327L324 382L189 436L270 491L252 545L252 600Z" fill="#020309"></path><path d="M0 600L0 545L0 491L0 436L0 382L0 327L0 273L0 218L0 164L0 109L0 55L0 0L99 0L198 55L99 109L72 164L180 218L225 273L252 327L198 382L117 436L171 491L135 545L189 600Z" fill="#000000"></path></svg>